<?xml version="1.0" standalone="no"?>
<!DOCTYPE svg PUBLIC "-//W3C//DTD SVG 20010904//EN"
 "http://www.w3.org/TR/2001/REC-SVG-20010904/DTD/svg10.dtd">
<svg version="1.0" xmlns="http://www.w3.org/2000/svg"
 width="348.000000pt" height="348.000000pt" viewBox="0 0 348.000000 348.000000"
 preserveAspectRatio="xMidYMid meet">

<g transform="translate(0.000000,348.000000) scale(0.100000,-0.100000)"
fill="#e50609" stroke="none">
<path d="M1657 3285 c-179 -45 -338 -176 -421 -347 -50 -102 -69 -185 -69
-303 0 -121 18 -199 75 -315 77 -158 240 -292 409 -336 92 -24 235 -22 324 6
277 86 464 345 465 643 0 134 -45 283 -118 389 -73 106 -204 206 -325 248 -81
28 -257 36 -340 15z"/>
<path d="M445 2278 c-22 -6 -42 -12 -43 -14 -5 -4 210 -777 218 -787 4 -5 31
-1 59 9 109 35 244 2 326 -81 167 -166 98 -459 -126 -535 l-51 -18 53 -20
c133 -49 421 -121 492 -122 16 0 17 25 17 387 l0 386 93 -6 c183 -12 379 -64
512 -135 l70 -37 3 -312 2 -313 40 0 40 0 0 313 0 312 58 32 c128 70 352 130
524 140 l98 6 0 -116 c0 -87 3 -117 13 -117 53 -1 182 -100 210 -162 18 -42
27 -34 27 26 0 98 -53 235 -135 351 -133 188 -426 371 -728 455 l-78 21 -37
-28 c-20 -15 -93 -71 -161 -125 -68 -54 -126 -98 -130 -98 -3 0 -78 57 -165
126 l-159 126 -66 -17 c-232 -62 -483 -196 -638 -338 l-58 -55 -94 332 c-52
182 -100 352 -108 379 -15 50 -16 51 -78 35z"/>
<path d="M675 1400 c-84 -38 -138 -124 -137 -220 0 -137 105 -242 240 -242
100 0 177 48 218 137 57 121 2 269 -121 326 -52 24 -146 24 -200 -1z"/>
<path d="M2692 1167 c-46 -14 -121 -84 -143 -132 -22 -48 -25 -142 -5 -189 19
-47 73 -104 118 -127 160 -82 353 35 352 213 -2 168 -163 286 -322 235z"/>
</g>
</svg>
