<?xml version="1.0" standalone="no"?>
<!DOCTYPE svg PUBLIC "-//W3C//DTD SVG 20010904//EN"
 "http://www.w3.org/TR/2001/REC-SVG-20010904/DTD/svg10.dtd">
<svg version="1.0" xmlns="http://www.w3.org/2000/svg"
 width="512.000000pt" height="512.000000pt" viewBox="0 0 512.000000 512.000000"
 preserveAspectRatio="xMidYMid meet">

<g transform="translate(0.000000,512.000000) scale(0.100000,-0.100000)"
fill="#e50609" stroke="none">
<path d="M2425 5044 c-143 -24 -332 -95 -550 -208 -286 -149 -854 -475 -1025
-589 -408 -273 -554 -484 -605 -876 -31 -237 -45 -1062 -24 -1417 31 -526 135
-748 474 -1006 203 -154 936 -587 1260 -744 487 -235 725 -230 1230 26 329
167 877 483 1090 628 451 308 564 521 596 1126 16 314 6 1216 -15 1362 -62
425 -191 615 -606 891 -203 135 -759 461 -995 584 -312 162 -482 218 -680 224
-66 2 -133 1 -150 -1z m1371 -1061 c11 -57 -5 -419 -21 -498 -48 -229 -169
-325 -630 -500 -611 -233 -1754 -611 -1776 -587 -21 21 -52 187 -57 298 -5
143 18 254 71 342 47 79 147 174 226 216 37 19 232 91 432 160 307 104 1446
503 1659 581 36 13 70 24 77 24 7 1 15 -16 19 -36z m-96 -1405 c35 -135 39
-308 11 -419 -12 -46 -36 -107 -54 -137 -43 -72 -157 -179 -234 -220 -34 -18
-208 -82 -385 -141 -178 -60 -593 -205 -923 -321 -728 -258 -857 -301 -864
-294 -25 24 -3 484 27 581 55 175 174 274 472 393 310 124 858 318 1335 474
206 67 562 174 581 175 5 1 21 -41 34 -91z"/>
</g>
</svg>
