<svg id="Layer_1" 
enable-background="new 0 0 512.001 512.001" 
height="512" viewBox="0 0 512.001 512.001" 
width="512" xmlns="http://www.w3.org/2000/svg">
<g><path d="m286 23.004c-9.694-1.968-19.726-3.004-30-3.004-82.843 0-150 67.172-150 150.032v150.033h60v-150.033c0-72.584 51.533-133.127 120-147.028z" 
fill="#08ece2"/><path d="m422.355 480.489-106.32-151.058c3.458-1.296 6.876-2.694 10.242-4.224 10.056-4.571 14.501-16.429 9.93-26.484-4.572-10.056-16.432-14.501-26.484-9.929-16.451 7.479-34.526 11.271-53.723 11.271h-130v-130.033c0-71.7 58.317-130.032 130-130.032 55.837 0 105.347 35.524 123.199 88.398 3.533 10.465 14.878 16.083 25.348 12.551 10.465-3.534 16.084-14.882 12.551-25.347-23.347-69.145-88.087-115.602-161.098-115.602-93.738 0-170 76.276-170 170.032v321.968c0 11.046 8.954 20 20 20s20-8.954 20-20v-151.935h130c6.073 0 12.068-.302 17.977-.892l115.667 164.339c3.895 5.533 10.085 8.49 16.373 8.49 3.978 0 7.994-1.183 11.494-3.646 9.033-6.358 11.202-18.835 4.844-27.867z" 
fill="#0023c4"/><path d="m375.871 280.001c-4.127 0-8.288-1.272-11.862-3.911-8.887-6.561-10.772-19.083-4.213-27.969 12.331-16.704 20.584-36.122 24.53-57.716 1.984-10.866 12.404-18.065 23.269-16.08 10.866 1.985 18.065 12.403 16.079 23.269-5.051 27.642-15.715 52.634-31.696 74.284-3.923 5.312-9.975 8.123-16.107 8.123z" 
fill="#08ece2"/></g></svg>